<?xml version="1.0" encoding="UTF-8"?>
<svg xmlns="http://www.w3.org/2000/svg" version="1.1" viewBox="0 0 200 200">
  <defs>
    <style>
      .cls-1 {
        fill: #515151;
      }
    </style>
  </defs>
  <!-- Generator: Adobe Illustrator 28.6.0, SVG Export Plug-In . SVG Version: 1.2.0 Build 709)  -->
  <g>
    <g id="_图层_1" data-name="图层_1">
      <path class="cls-1" d="M182.1,56.5c0-.6,0-1.2,0-1.8v-.5l-3.2.3,2.8-.7v-.6c-.4-1.3-.9-2.6-1.5-3.8-.6-1.3-1.2-2.5-2-3.7-4.1-6.1-11.1-9.8-18.5-9.8H40c-7.4,0-14.3,3.7-18.4,9.9-.8,1.3-1.6,2.6-2.1,4.1-.5,1.3-.9,2.7-1.2,4.1l2.9.6h-3c-.1.7-.2,1.4-.3,2.1v91.7c0,12.3,10,22.2,22.2,22.2h119.8c12.3,0,22.2-10,22.2-22.2V56.5h0ZM166.5,63v80.2c0,6.3-5.1,11.5-11.5,11.5H45c-6.3,0-11.5-5.1-11.5-11.5V63c0-1,.1-1.9.3-2.9l59.9,48,.5.6c1.4,1.2,3,1.9,4.8,2.1h1.1c2.1,0,4.1-.7,5.6-2.1l60.4-48.5c.3.9.4,1.9.4,2.9ZM100,93.3l-52.1-41.8h104.2l-52.1,41.8Z"/>
    </g>
  </g>
</svg>