<?xml version="1.0" encoding="UTF-8"?>
<svg xmlns="http://www.w3.org/2000/svg" version="1.1" viewBox="0 0 200 200">
  <defs>
    <style>
      .cls-1 {
        fill: #515151;
      }
    </style>
  </defs>
  <!-- Generator: Adobe Illustrator 28.6.0, SVG Export Plug-In . SVG Version: 1.2.0 Build 709)  -->
  <g>
    <g id="_图层_1" data-name="图层_1">
      <path class="cls-1" d="M134,193.5c-4.4,0-8-3.6-8-8h0v-31.2c.6-5.7-1.3-11.3-5.3-15.4-2-2.2-2.7-5.2-1.8-8,1.1-2.9,3.6-4.9,6.7-5.2,23.2-2.7,44.7-10.3,44.7-48.3,0-9.2-3.5-18-9.8-24.6-2-2.2-2.7-5.2-1.8-8,2.5-6.4,2.9-13.5,1.1-20.2-7.6,2.2-14.8,5.7-21.3,10.4-1.9,1.3-4.3,1.7-6.6,1.1-17.1-4.7-35.1-4.7-52.2,0-2.3.6-4.7.2-6.6-1.1-6.4-4.7-13.6-8.3-21.3-10.4-1.6,6.4-1.2,13.1,1.1,19.2.9,2.8.3,5.9-1.8,8-6.5,6.8-10,15.9-9.8,25.4,0,37.7,21.5,45.6,44.8,48.3,3,.4,5.6,2.4,6.6,5.3.9,2.8.3,5.9-1.8,8-3.9,4-5.8,9.4-5.3,15v31.7c0,4.4-3.6,8-8,8s-8-3.6-8-8v-14.1c-16.3,3.3-32.9-4-41.6-18.1-3.1-4-5.9-7.4-8.6-8-4.4-1.1-7.2-5.5-6.1-10,1.1-4.4,5.5-7.2,10-6.1,7.2,2.5,13.4,7.5,17.4,14,6.7,8.5,12.2,15.5,29,12v-.8c-.3-5.1.5-10.2,2.4-14.9-22.7-5.2-46.7-19.1-46.7-62.2,0-11.7,3.9-23,11.1-32.2-2.8-10.5-2-21.7,2.3-31.6.8-2.4,2.7-4.2,5.2-5,2.9-.6,13.8-2.2,35.2,11.3,17.6-4.1,35.9-4.1,53.5,0,21.3-13.4,32.3-11.8,35.2-11.3,2.3.7,4.2,2.4,5.2,4.6,4.3,10,5.1,21.1,2.3,31.6,7.2,9.2,11.2,20.5,11.1,32.2,0,45.7-27.8,58.4-46.6,62.5,2,5,2.8,10.4,2.3,15.7v30.5c0,4.4-3.6,8-8,8h0Z"/>
    </g>
  </g>
</svg>